<?xml version="1.0" encoding="UTF-8"?>
<svg id="Layer_1" data-name="Layer 1" xmlns="http://www.w3.org/2000/svg" xmlns:xlink="http://www.w3.org/1999/xlink" viewBox="225 622 1048 178">
  <defs>
    <style>
      .cls-1 {
        fill: url(#New_Gradient_Swatch_1-2);
      }

      .cls-2 {
        isolation: isolate;
      }

      .cls-3 {
        fill: url(#New_Gradient_Swatch_1);
      }

      .cls-4 {
        fill: #e8e8e8;
      }
    </style>
    <linearGradient id="New_Gradient_Swatch_1" data-name="New Gradient Swatch 1" x1="1017.23" y1="711.19" x2="1194.01" y2="711.19" gradientUnits="userSpaceOnUse">
      <stop offset="0" stop-color="#ff6b35"/>
      <stop offset="1" stop-color="#ff9b6b"/>
    </linearGradient>
    <linearGradient id="New_Gradient_Swatch_1-2" data-name="New Gradient Swatch 1" x1="1211.96" x2="1262.25" xlink:href="#New_Gradient_Swatch_1"/>
  </defs>
  <g class="cls-2">
    <g>
      <path class="cls-4" d="M347.64,725.92l43.98,13.29c-2.95,12.33-7.61,22.63-13.96,30.9-6.35,8.27-14.23,14.51-23.65,18.72-9.42,4.21-21.4,6.31-35.94,6.31-17.65,0-32.07-2.56-43.25-7.69-11.19-5.13-20.84-14.15-28.97-27.06-8.12-12.91-12.18-29.45-12.18-49.59,0-26.86,7.14-47.51,21.43-61.93,14.29-14.43,34.5-21.64,60.65-21.64,20.45,0,36.53,4.14,48.24,12.41,11.7,8.27,20.4,20.97,26.09,38.1l-44.31,9.86c-1.55-4.95-3.18-8.57-4.87-10.86-2.81-3.84-6.24-6.79-10.3-8.86-4.06-2.07-8.6-3.1-13.62-3.1-11.37,0-20.09,4.57-26.14,13.72-4.58,6.79-6.87,17.44-6.87,31.97,0,18,2.73,30.33,8.2,37.01,5.46,6.68,13.14,10.01,23.04,10.01s16.85-2.69,21.77-8.09c4.91-5.39,8.47-13.22,10.69-23.48Z"/>
      <path class="cls-4" d="M417.97,630h50.29v162.39h-50.29v-162.39Z"/>
      <path class="cls-4" d="M504.59,630h46.85l61.14,89.84v-89.84h47.3v162.39h-47.3l-60.81-89.16v89.16h-47.19v-162.39Z"/>
      <path class="cls-4" d="M693.12,630h134.47v34.67h-84.18v25.81h78.09v33.12h-78.09v32.01h86.62v36.78h-136.91v-162.39Z"/>
      <path class="cls-4" d="M845.98,630h55.27l28.74,49.96,27.97-49.96h54.72l-50.54,78.65,55.31,83.74h-56.38l-32.07-52.17-32.07,52.17h-56.05l56.01-84.63-50.92-77.76Z"/>
    </g>
    <path class="cls-3" d="M1133.34,765.58h-56.97l-7.91,26.81h-51.23l61.03-162.39h54.73l61.02,162.39h-52.55l-8.12-26.81ZM1122.94,730.46l-17.92-58.38-17.74,58.38h35.66Z"/>
    <path class="cls-1" d="M1211.96,630h50.29v162.39h-50.29v-162.39Z"/>
  </g>
  <g>
    <path class="cls-4" d="M608.14,826.11v2.88h-8.16v21.32h-3.31v-21.32h-8.16v-2.88h19.63Z"/>
    <path class="cls-4" d="M615.96,826.11h3.31v10h12.44v-10h3.31v24.21h-3.31v-11.32h-12.44v11.32h-3.31v-24.21Z"/>
    <path class="cls-4" d="M645.29,826.11h17.57v2.96h-14.37v7.35h13.28v2.8h-13.28v8.21h14.62v2.88h-17.81v-24.21Z"/>
    <path class="cls-4" d="M691.5,826.11h3.71l8.78,24.21h-3.59l-2.46-7.25h-9.57l-2.62,7.25h-3.36l9.11-24.21ZM696.89,840.4l-3.68-10.7-3.91,10.7h7.58Z"/>
    <path class="cls-4" d="M712.44,826.11h3.31v24.21h-3.31v-24.21Z"/>
    <path class="cls-4" d="M739.81,826.11h4.7l6.96,20.47,6.91-20.47h4.66v24.21h-3.13v-14.29c0-.49.01-1.31.03-2.45.02-1.14.03-2.37.03-3.68l-6.91,20.42h-3.25l-6.98-20.42v.74c0,.59.02,1.5.05,2.71.03,1.21.05,2.11.05,2.68v14.29h-3.13v-24.21Z"/>
    <path class="cls-4" d="M773.05,826.11h17.57v2.96h-14.37v7.35h13.28v2.8h-13.28v8.21h14.62v2.88h-17.81v-24.21Z"/>
    <path class="cls-4" d="M800.12,826.11h9.68c3.29,0,5.83,1.18,7.64,3.54,1.62,2.13,2.42,4.86,2.42,8.19,0,2.57-.48,4.89-1.43,6.97-1.68,3.67-4.57,5.5-8.67,5.5h-9.64v-24.21ZM809.15,847.52c1.08,0,1.98-.12,2.67-.35,1.25-.43,2.27-1.25,3.06-2.47.63-.98,1.09-2.23,1.37-3.76.16-.91.24-1.76.24-2.54,0-3-.58-5.33-1.75-6.99s-3.04-2.49-5.63-2.49h-5.69v18.59h5.72Z"/>
    <path class="cls-4" d="M829.81,826.11h3.31v24.21h-3.31v-24.21Z"/>
    <path class="cls-4" d="M850.2,826.11h3.71l8.78,24.21h-3.59l-2.46-7.25h-9.57l-2.62,7.25h-3.36l9.11-24.21ZM855.59,840.4l-3.68-10.7-3.91,10.7h7.58Z"/>
    <path class="cls-4" d="M884.8,842.51c.07,1.37.39,2.49.94,3.34,1.05,1.6,2.89,2.41,5.54,2.41,1.18,0,2.26-.17,3.24-.53,1.88-.68,2.83-1.9,2.83-3.66,0-1.32-.4-2.26-1.2-2.82-.81-.55-2.07-1.03-3.8-1.43l-3.18-.74c-2.07-.48-3.54-1.02-4.41-1.6-1.49-1.01-2.23-2.52-2.23-4.53,0-2.18.73-3.96,2.2-5.36s3.54-2.09,6.22-2.09c2.47,0,4.57.61,6.29,1.84s2.59,3.18,2.59,5.87h-3.08c-.16-1.3-.49-2.29-1.01-2.98-.96-1.26-2.59-1.9-4.88-1.9-1.85,0-3.19.41-4,1.22-.81.81-1.22,1.76-1.22,2.83,0,1.19.48,2.05,1.44,2.6.63.35,2.05.79,4.26,1.32l3.29.77c1.59.37,2.81.88,3.67,1.53,1.49,1.13,2.24,2.77,2.24,4.93,0,2.68-.95,4.6-2.85,5.75-1.9,1.15-4.11,1.73-6.63,1.73-2.94,0-5.23-.77-6.89-2.31-1.66-1.53-2.48-3.6-2.44-6.21h3.08Z"/>
    <path class="cls-4" d="M927.49,826.11v2.88h-8.16v21.32h-3.31v-21.32h-8.16v-2.88h19.63Z"/>
    <path class="cls-4" d="M938.77,826.11v14.96c0,1.76.33,3.22,1,4.38.99,1.76,2.65,2.64,4.98,2.64,2.8,0,4.71-.95,5.71-2.85.54-1.03.81-2.42.81-4.17v-14.96h3.31v13.59c0,2.98-.4,5.27-1.21,6.87-1.48,2.92-4.27,4.38-8.37,4.38s-6.88-1.46-8.35-4.38c-.8-1.6-1.21-3.89-1.21-6.87v-13.59h3.31Z"/>
    <path class="cls-4" d="M964.47,826.11h9.68c3.29,0,5.83,1.18,7.64,3.54,1.62,2.13,2.42,4.86,2.42,8.19,0,2.57-.48,4.89-1.43,6.97-1.68,3.67-4.57,5.5-8.67,5.5h-9.64v-24.21ZM973.5,847.52c1.08,0,1.98-.12,2.67-.35,1.25-.43,2.27-1.25,3.06-2.47.63-.98,1.09-2.23,1.37-3.76.16-.91.24-1.76.24-2.54,0-3-.58-5.33-1.75-6.99s-3.04-2.49-5.63-2.49h-5.69v18.59h5.72Z"/>
    <path class="cls-4" d="M994.16,826.11h3.31v24.21h-3.31v-24.21Z"/>
    <path class="cls-4" d="M1027.46,829.58c1.6,2.14,2.41,4.88,2.41,8.22,0,3.61-.92,6.62-2.75,9.01-2.15,2.81-5.22,4.22-9.21,4.22-3.72,0-6.65-1.23-8.78-3.69-1.9-2.37-2.85-5.37-2.85-9,0-3.27.81-6.07,2.44-8.4,2.09-2.99,5.17-4.48,9.26-4.48s7.44,1.37,9.49,4.12ZM1024.57,845c1.29-2.07,1.94-4.46,1.94-7.15,0-2.85-.74-5.14-2.23-6.88s-3.52-2.61-6.1-2.61-4.55.86-6.13,2.58-2.37,4.26-2.37,7.61c0,2.68.68,4.95,2.03,6.79,1.36,1.84,3.56,2.76,6.6,2.76s4.98-1.04,6.27-3.11Z"/>
    <path class="cls-4" d="M1050.13,826.11h3.82l6.96,11.63,6.96-11.63h3.86l-9.17,14.45v9.76h-3.28v-9.76l-9.15-14.45Z"/>
    <path class="cls-4" d="M1099.17,829.58c1.6,2.14,2.41,4.88,2.41,8.22,0,3.61-.92,6.62-2.75,9.01-2.15,2.81-5.22,4.22-9.21,4.22-3.72,0-6.65-1.23-8.78-3.69-1.9-2.37-2.85-5.37-2.85-9,0-3.27.81-6.07,2.44-8.4,2.09-2.99,5.17-4.48,9.26-4.48s7.44,1.37,9.49,4.12ZM1096.28,845c1.29-2.07,1.94-4.46,1.94-7.15,0-2.85-.74-5.14-2.23-6.88s-3.52-2.61-6.1-2.61-4.55.86-6.13,2.58-2.37,4.26-2.37,7.61c0,2.68.68,4.95,2.03,6.79,1.36,1.84,3.56,2.76,6.6,2.76s4.98-1.04,6.27-3.11Z"/>
    <path class="cls-4" d="M1113.75,826.11v14.96c0,1.76.33,3.22,1,4.38.99,1.76,2.65,2.64,4.98,2.64,2.8,0,4.71-.95,5.71-2.85.54-1.03.81-2.42.81-4.17v-14.96h3.31v13.59c0,2.98-.4,5.27-1.21,6.87-1.48,2.92-4.27,4.38-8.37,4.38s-6.88-1.46-8.35-4.38c-.8-1.6-1.21-3.89-1.21-6.87v-13.59h3.31Z"/>
    <path class="cls-4" d="M1153.41,826.11h3.86l12.07,19.56v-19.56h3.13v24.21h-3.68l-12.25-19.54v19.54h-3.13v-24.21Z"/>
    <path class="cls-4" d="M1182.82,826.11h17.57v2.96h-14.37v7.35h13.28v2.8h-13.28v8.21h14.62v2.88h-17.81v-24.21Z"/>
    <path class="cls-4" d="M1210.05,826.11h17.57v2.96h-14.37v7.35h13.28v2.8h-13.28v8.21h14.62v2.88h-17.81v-24.21Z"/>
    <path class="cls-4" d="M1237.12,826.11h9.68c3.29,0,5.83,1.18,7.64,3.54,1.62,2.13,2.42,4.86,2.42,8.19,0,2.57-.48,4.89-1.43,6.97-1.68,3.67-4.57,5.5-8.67,5.5h-9.64v-24.21ZM1246.15,847.52c1.08,0,1.98-.12,2.67-.35,1.25-.43,2.27-1.25,3.06-2.47.63-.98,1.09-2.23,1.37-3.76.16-.91.24-1.76.24-2.54,0-3-.58-5.33-1.75-6.99s-3.04-2.49-5.63-2.49h-5.69v18.59h5.72Z"/>
    <path class="cls-4" d="M1266.38,846.73h3.44v3.59h-3.44v-3.59Z"/>
  </g>
</svg>